# xmcd CD database file
#
# Track frame offsets:
#	150
#	17749
#	66245
#	91748
#	118308
#	155109
#	174110
#	202352
#
# Disc length: 3027 seconds
#
# Revision: 0
# Processed by: cddbd v1.4PL0 Copyright (c) Steve Scherf et al.
# Submitted via: CDex 1.50Beta7
#
DISCID=6d0bd108
DTITLE=Maceo Parker - Roots Revisited
DYEAR=1990
DGENRE=Jazz
TTITLE0=Them That Got
TTITLE1=Children's World
TTITLE2=Better Get Hit in Yo' Soul
TTITLE3=People Get Ready
TTITLE4=Up and Down the East Street
TTITLE5=Over the Rainbow
TTITLE6=Jumpin' the Blues
TTITLE7=In Time
EXTD=YEAR: 1990
EXTT0=
EXTT1=
EXTT2=
EXTT3=
EXTT4=
EXTT5=
EXTT6=
EXTT7=
PLAYORDER=
